<svg width="306" height="73" viewBox="0 0 306 73" fill="none" xmlns="http://www.w3.org/2000/svg">
<path d="M146.233 40.8604C150.017 40.8604 152.525 42.4891 153.933 44.9971L154.417 41.125H157.541V62.4648C157.541 68.9327 154.109 72.6289 146.409 72.6289C140.689 72.6289 136.685 69.9446 136.113 65.0166H139.81C140.426 67.8325 142.933 69.4169 146.673 69.417C151.381 69.417 153.933 67.2168 153.933 62.333V59.6924C152.437 62.2443 150.017 63.829 146.233 63.8291C140.029 63.8291 135.453 59.6487 135.453 52.3447C135.453 45.4807 140.029 40.8604 146.233 40.8604ZM227.411 59.0322L234.451 41.125H238.279L227.587 67.3486C226.179 70.9126 225.343 72.3643 222.175 72.3643H217.203V69.0645H220.987C223.055 69.0644 223.407 68.5367 224.243 66.4248L225.343 63.6963L216.367 41.125H220.195L227.411 59.0322ZM306 27.6494L283.905 49.8633L274 40.8408V51.8623C259.214 48.7727 250.423 58.5931 247.738 64H242L306 0V27.6494ZM38.1211 40.8604C44.4568 40.8605 48.5926 44.865 48.7686 51.5088C48.7685 51.8608 48.7247 52.6088 48.6807 53.1367H31.2568V53.3564C31.3888 57.6244 34.0728 60.6162 38.3408 60.6162C41.5086 60.6161 43.9726 58.9448 44.7207 56.041H48.373C47.493 60.5289 43.7964 63.8291 38.6045 63.8291C31.8726 63.829 27.4727 59.2087 27.4727 52.3447C27.4727 45.5247 31.7851 40.8604 38.1211 40.8604ZM202.638 40.8604C208.358 40.8604 211.657 43.721 211.657 48.957V58.7686C211.657 59.9564 212.098 60.2646 213.109 60.2646H214.254V63.5645H212.273C209.282 63.5644 208.27 62.2887 208.226 60.0889C206.818 62.1128 204.573 63.8291 200.701 63.8291C195.773 63.8289 192.43 61.3643 192.43 57.2725C192.43 52.7847 195.554 50.2765 201.449 50.2764H208.05V48.7363C208.05 45.8326 205.982 44.0724 202.462 44.0723C199.294 44.0723 197.181 45.5685 196.741 47.8564H193.134C193.662 43.4566 197.226 40.8604 202.638 40.8604ZM3.82812 46.1406H17.7764V32.7646H21.6045V63.5645H17.7764V49.6611H3.82812V63.5645H0V32.7646H3.82812V46.1406ZM75.7334 40.8604C80.1774 40.8604 83.0381 43.9849 83.0381 49.0889V63.5645H79.4297V49.2207C79.4297 46.2288 78.0218 44.2491 75.25 44.249C72.3021 44.249 70.586 46.4926 70.5859 49.4404V63.5645H66.9775V49.2207C66.9775 46.4488 65.8338 44.2491 62.666 44.249C59.762 44.249 58.1338 46.537 58.1338 49.749V63.5645H54.5254V41.125H57.5615L57.8701 43.501C59.0141 41.873 60.95 40.8604 63.502 40.8604C66.1859 40.8604 68.2976 42.225 69.3096 44.293C70.6295 42.2251 72.7856 40.8605 75.7334 40.8604ZM98.6064 60.2646H105.426V63.5645H88.2227V60.2646H94.998V44.4248H88.2227V41.125H98.6064V60.2646ZM121.121 40.8604C125.961 40.8604 129.921 43.5009 129.921 50.6289V63.5645H126.313V50.8486C126.313 46.4927 124.201 44.1611 120.505 44.1611C116.545 44.1613 113.993 47.1086 113.993 51.9043V63.5645H110.385V41.125H113.509L113.993 44.1611C115.313 42.4451 117.557 40.8604 121.121 40.8604ZM169.589 59.3848L174.209 44.0723H177.465L181.953 59.3848L185.869 41.125H189.301L184.285 63.5645H179.973L175.793 49.4404L171.437 63.5645H167.125L162.197 41.125H165.805L169.589 59.3848ZM201.098 53.3125C197.886 53.3125 196.082 54.5007 196.082 57.0527C196.082 59.2527 197.974 60.749 200.966 60.749C205.454 60.749 208.05 58.1528 208.05 54.4131V53.3125H201.098ZM146.585 44.0723C142.141 44.0723 139.149 47.4608 139.149 52.3447C139.149 57.2287 142.141 60.6161 146.585 60.6162C150.985 60.6162 153.978 57.2286 153.978 52.4326C153.978 47.5047 150.985 44.0723 146.585 44.0723ZM38.165 44.0283C34.8651 44.0283 31.8286 46.4047 31.4766 50.0566H44.8965C44.5445 46.1848 41.9048 44.0285 38.165 44.0283ZM96.8457 31.709C98.3856 31.709 99.5741 32.8966 99.5742 34.4365C99.5742 36.0645 98.3857 37.209 96.8457 37.209C95.3059 37.2087 94.0742 36.0644 94.0742 34.4365C94.0743 32.8968 95.306 31.7092 96.8457 31.709Z" fill="black" style="fill:black;fill-opacity:1;"/>
</svg>
